# xmcd
#
# Track frame offsets: 
#        150
#        18215
#        31506
#        54745
#        78169
#        100288
#        117903
#        136562
#        160412
#        172862
#
# Disc length: 2494 seconds
#
# Revision: 2
# Processed by: cddbd v1.5.2PL0 Copyright (c) Steve Scherf et al.
# Submitted via: ExactAudioCopyFreeDBPlugin 1.0
#
DISCID=6809bc0a
DTITLE=堀込泰行 - Choice By YASUYUKI HORIGOME
DYEAR=2016
DGENRE=Blues
TTITLE0=Cruel To Be Kind (Nick Lowe)
TTITLE1=Rich Girl (Hall and Oates)
TTITLE2=Copacabana (Barry Manilow)
TTITLE3=Light My Fire (The Doors)
TTITLE4=I Can't Tell You Why (Eagles)
TTITLE5=So Far Away (Carole King)
TTITLE6=Oh Pretty Woman (Roy Orbison)
TTITLE7=This Masquerade (Leon Russell)
TTITLE8=It's Not Unusual (Tom Jones)
TTITLE9=Tie A Yellow Ribbon Round The Ole Oak Tree (Tony Orlando and Daw
TTITLE9=n)
EXTD=Powerd by gracenote music web API
EXTT0=
EXTT1=
EXTT2=
EXTT3=
EXTT4=
EXTT5=
EXTT6=
EXTT7=
EXTT8=
EXTT9=
PLAYORDER=
